# xmcd CD database file
#
# Track frame offsets:
#	150
#	16759
#	35692
#	60629
#	79952
#	99420
#	115418
#	128900
#	141524
#	155177
#	167386
#	187209
#
# Disc length: 2849 seconds
#
# Revision: 0
# Processed by: cddbd v1.4PL0 Copyright (c) Steve Scherf et al.
# Submitted via: Feurio! 1.64 - http://www.feurio.com
#
DISCID=a80b1f0c
DTITLE=Markus Rill and The Gunslingers - The Devil And The Open Road
DYEAR=1900
DGENRE=Alt. Country
TTITLE0=Trouble With The Law
TTITLE1=Eye For An Eye
TTITLE2=Awful Pretty
TTITLE3=Wasteland
TTITLE4=Rainville
TTITLE5=Snake Tattoo
TTITLE6=The Deal
TTITLE7=Dry Spell
TTITLE8=Memory And A Dream
TTITLE9=Pawn Shop Girl
TTITLE10=I Dreamed I Saw My Tombstone
TTITLE11=The Devil And The Open Road
EXTD=
EXTT0=
EXTT1=
EXTT2=
EXTT3=
EXTT4=
EXTT5=
EXTT6=
EXTT7=
EXTT8=
EXTT9=
EXTT10=
EXTT11=
PLAYORDER=
